<svg xmlns="http://www.w3.org/2000/svg" width="1254" height="836" viewBox="0 0 1254 836">
  <g>
    <path d="M 671.00 720.00 C655.20,720.92 602.17,721.18 596.00,720.37 C594.62,720.19 584.95,719.60 574.50,719.06 C564.05,718.52 547.46,716.92 537.63,715.51 C506.21,711.01 494.05,707.45 491.26,701.94 C490.50,700.43 490.03,695.12 490.02,688.00 C490.01,674.01 491.01,671.85 499.60,667.34 C516.35,658.53 565.34,646.11 591.00,644.15 L 599.50 643.50 L 599.77 617.10 C600.01,593.30 599.86,590.51 598.31,588.79 C597.14,587.50 596.42,584.47 596.05,579.28 L 595.50 571.67 L 587.19 568.89 C565.12,561.48 545.74,549.70 529.32,533.71 C511.48,516.33 500.25,498.46 493.03,476.00 C487.04,457.38 486.74,453.67 486.27,394.37 L 485.85 340.23 L 482.18 339.63 C477.23,338.82 472.17,335.57 470.98,332.43 C470.44,331.02 470.00,322.88 470.00,314.33 L 470.00 298.80 L 473.40 295.40 C476.25,292.55 477.52,292.00 481.26,292.00 C485.42,292.00 485.77,291.79 486.64,288.76 C487.85,284.55 491.03,283.03 498.69,283.01 C503.75,283.00 505.38,283.43 507.60,285.33 C509.91,287.32 510.40,288.69 510.91,294.58 L 511.50 301.50 L 515.25 301.81 C518.70,302.10 519.00,301.91 519.00,299.53 C519.00,295.28 521.72,290.07 524.87,288.26 L 527.83 286.56 L 528.22 241.53 L 528.60 196.50 L 531.37 186.00 C535.13,171.73 543.10,155.64 551.67,145.01 C562.85,131.14 579.21,119.31 594.75,113.88 C613.55,107.32 642.97,107.36 660.65,113.97 C693.20,126.15 715.89,153.63 724.25,191.00 C726.19,199.69 726.41,204.17 726.76,243.49 L 727.15 286.48 L 730.17 289.00 C732.19,290.69 733.60,293.16 734.45,296.51 C735.66,301.27 735.88,301.50 739.11,301.50 L 742.50 301.50 L 743.00 294.16 C743.66,284.43 745.27,283.00 755.48,283.00 C763.48,283.00 767.58,285.02 768.18,289.27 C768.45,291.16 769.27,291.58 773.61,292.01 C783.20,292.98 785.00,296.62 785.00,315.00 C785.00,329.37 784.03,333.26 779.55,336.78 C778.07,337.95 774.89,339.19 772.48,339.55 L 768.10 340.21 L 767.36 454.50 L 764.70 465.00 C759.61,485.05 751.72,501.89 740.29,517.12 C722.68,540.56 695.98,559.66 667.70,569.04 L 658.00 572.25 L 658.00 579.49 C658.00,585.22 657.58,587.26 656.00,589.27 C654.12,591.66 654.00,593.33 654.00,617.36 L 654.00 642.91 L 657.25 643.41 C659.04,643.69 663.20,644.19 666.50,644.52 C669.80,644.85 678.80,646.20 686.50,647.51 C720.80,653.35 759.67,665.91 763.20,672.30 C764.65,674.94 764.49,700.21 763.00,703.00 C759.10,710.28 722.93,716.97 671.00,720.00 ZM 588.23 538.56 C592.78,540.43 596.99,541.97 597.58,541.98 C598.18,541.99 599.25,540.90 599.97,539.55 C600.69,538.21 601.87,536.88 602.58,536.61 C603.30,536.33 614.57,536.03 627.63,535.93 L 651.38 535.74 L 657.22 542.28 L 662.86 540.00 C672.71,536.03 687.35,528.06 694.16,522.97 C715.57,506.93 732.62,480.99 739.72,453.63 L 742.35 443.50 L 742.75 388.25 L 743.15 333.00 L 739.07 333.00 C735.58,333.00 735.00,333.30 735.00,335.13 C735.00,336.30 733.45,338.72 731.56,340.51 L 728.12 343.75 L 727.77 392.63 L 727.42 441.50 L 724.77 451.00 C719.53,469.80 711.85,482.90 698.30,496.13 C681.89,512.16 665.69,520.25 643.50,523.50 C614.69,527.72 587.73,521.44 566.08,505.48 C546.88,491.34 534.43,471.85 528.38,446.50 C526.97,440.61 526.64,431.81 526.29,390.88 L 525.87 342.27 L 523.48 340.99 C522.16,340.29 520.37,338.20 519.50,336.36 C518.14,333.48 517.40,333.00 514.38,333.00 L 510.86 333.00 L 511.30 386.75 C511.78,445.53 511.93,447.21 518.01,464.50 C530.13,498.98 554.47,524.65 588.23,538.56 ZM 658.00 551.08 L 658.00 562.22 L 660.75 561.54 C664.75,560.56 681.76,553.21 687.00,550.20 C723.19,529.42 745.89,499.99 755.83,461.00 L 758.50 450.50 L 758.50 291.50 L 752.00 290.87 L 751.87 310.19 C751.79,320.81 751.65,354.02 751.56,384.00 C751.39,435.07 751.25,439.19 749.25,449.50 C744.25,475.32 733.45,496.79 716.25,515.07 C701.71,530.53 680.24,544.40 662.75,549.65 ZM 587.00 559.10 C591.12,560.64 594.84,561.92 595.25,561.95 C595.66,561.98 596.00,559.61 596.00,556.68 L 596.00 551.37 L 590.25 549.58 C581.47,546.85 565.83,538.80 557.06,532.48 C529.59,512.71 511.39,484.03 504.71,450.00 C502.77,440.16 502.61,434.86 502.07,365.50 L 501.50 291.50 L 498.75 291.18 C497.00,290.98 495.98,291.35 495.95,292.18 C495.41,305.53 495.73,447.00 496.30,447.00 C496.73,447.00 496.80,448.58 496.43,450.50 C495.97,452.96 496.14,454.00 497.01,454.00 C497.74,454.00 498.02,454.80 497.71,456.00 C497.42,457.10 497.65,458.00 498.21,458.00 C498.77,458.00 499.00,458.90 498.71,460.00 C498.42,461.10 498.65,462.00 499.21,462.00 C499.77,462.00 500.00,462.90 499.71,464.00 C499.42,465.10 499.58,466.24 500.05,466.53 C500.52,466.82 500.68,467.68 500.39,468.43 C500.10,469.18 500.35,470.10 500.95,470.47 C501.54,470.84 501.77,471.56 501.46,472.07 C501.14,472.58 501.41,473.00 502.05,473.00 C502.69,473.00 502.95,473.67 502.64,474.50 C502.32,475.33 502.53,476.00 503.09,476.00 C503.66,476.00 503.87,476.40 503.57,476.89 C502.92,477.94 505.78,485.22 507.20,486.11 C507.73,486.45 508.09,487.03 507.98,487.40 C507.64,488.65 510.23,494.00 511.18,494.00 C511.70,494.00 511.87,494.40 511.56,494.90 C511.26,495.39 511.71,496.06 512.57,496.39 C513.43,496.72 513.85,497.44 513.50,497.99 C513.16,498.55 513.28,499.00 513.77,499.00 C514.27,499.00 514.67,499.60 514.67,500.33 C514.67,502.03 520.02,509.82 524.35,514.41 C526.19,516.36 527.53,518.14 527.32,518.35 C526.42,519.25 546.97,537.51 554.40,542.43 C563.98,548.77 576.59,555.21 587.00,559.10 ZM 612.50 658.81 C613.70,659.49 619.74,659.95 627.62,659.97 C639.40,660.00 641.00,659.79 643.37,657.93 L 646.00 655.85 L 646.00 597.50 L 609.00 597.50 L 609.02 626.50 C609.02,642.45 609.36,655.99 609.77,656.59 C610.17,657.18 611.40,658.18 612.50,658.81 ZM 606.31 586.59 C609.05,588.94 609.53,589.00 627.10,589.00 C628.42,589.00 629.66,589.00 630.83,589.01 C640.49,589.04 645.30,589.05 647.69,586.66 C650.06,584.28 650.04,579.52 650.01,570.05 C650.00,568.89 650.00,567.66 650.00,566.36 C650.00,564.81 650.01,563.36 650.01,562.02 C650.06,553.12 650.08,548.59 647.83,546.30 C645.50,543.92 640.72,543.94 630.98,543.99 C629.56,543.99 628.04,544.00 626.40,544.00 C605.69,544.00 604.73,544.23 603.43,549.42 C603.12,550.67 603.00,559.01 603.18,567.94 L 603.50 584.18 ZM 532.25 377.34 C532.94,377.62 575.41,377.88 626.63,377.92 C707.90,377.99 719.91,377.81 720.99,376.51 C721.67,375.69 721.96,374.34 721.64,373.51 C721.13,372.18 709.98,372.00 626.47,372.00 C563.67,372.00 532.09,372.34 532.50,373.00 C532.84,373.55 532.64,374.00 532.06,374.00 C530.58,374.00 530.73,376.73 532.25,377.34 ZM 531.67 294.33 C532.80,295.47 722.80,295.13 723.51,293.99 C723.85,293.44 723.88,292.20 723.58,291.24 C723.06,289.60 717.57,289.51 628.26,289.73 C576.14,289.86 532.94,289.97 532.25,289.98 C530.94,290.00 530.52,293.18 531.67,294.33 ZM 531.67 342.34 C532.04,342.71 575.35,342.90 627.92,342.76 L 723.50 342.50 L 723.50 338.13 L 627.25 337.81 L 531.00 337.50 L 531.00 339.58 C531.00,340.73 531.30,341.97 531.67,342.34 ZM 609.64 670.06 C613.82,671.74 616.52,671.98 629.00,671.74 C642.31,671.49 643.86,671.26 647.91,668.98 C653.62,665.77 656.05,662.38 656.55,656.91 C656.91,653.00 656.86,652.87 656.11,655.72 C654.76,660.87 652.44,663.61 647.30,666.13 C643.23,668.12 640.63,668.54 630.19,668.85 C622.90,669.06 615.97,668.73 613.19,668.05 C606.89,666.49 601.15,662.57 599.46,658.69 C598.61,656.72 598.06,656.19 598.04,657.30 C597.93,662.17 602.49,667.19 609.64,670.06 ZM 671.56 361.78 C672.74,363.46 674.11,364.00 677.23,364.00 C682.56,364.00 685.00,361.80 685.00,357.00 C685.00,352.36 682.39,349.84 677.44,349.70 C671.13,349.52 667.79,356.39 671.56,361.78 ZM 625.26 364.21 C630.64,364.77 634.00,362.22 634.00,357.57 C634.00,352.43 631.59,350.00 626.50,350.00 C623.10,350.00 621.76,350.50 620.56,352.22 C617.13,357.11 619.69,363.63 625.26,364.21 ZM 656.45 255.55 C659.29,258.38 663.49,258.74 666.78,256.44 C669.74,254.37 669.87,247.87 667.00,245.00 C662.71,240.71 654.00,244.40 654.00,250.50 C654.00,251.93 655.10,254.20 656.45,255.55 ZM 647.19 363.32 C650.02,364.45 655.92,363.94 657.43,362.43 C659.87,359.99 659.83,354.63 657.35,351.86 C653.79,347.87 645.66,349.70 644.56,354.74 C643.83,358.03 645.21,362.53 647.19,363.32 ZM 699.32 363.81 C702.62,365.41 704.47,365.20 707.37,362.93 C709.38,361.34 710.00,359.97 710.00,357.08 C710.00,348.43 698.99,346.64 695.89,354.78 C694.65,358.04 696.29,362.34 699.32,363.81 ZM 674.24 277.97 C677.98,279.47 679.97,279.13 682.55,276.55 C685.58,273.52 685.78,268.78 683.00,266.00 C680.57,263.57 674.81,263.34 672.57,265.57 C668.85,269.30 669.77,276.17 674.24,277.97 ZM 548.36 364.01 C551.60,365.32 552.50,365.18 555.37,362.93 C558.49,360.47 558.99,354.75 556.35,351.83 C553.74,348.94 547.63,349.38 545.07,352.63 C543.93,354.08 543.00,356.01 543.00,356.91 C543.00,359.24 545.83,362.99 548.36,364.01 ZM 572.35 363.55 C574.08,364.31 576.10,364.72 576.83,364.46 C577.56,364.21 578.54,364.00 579.01,364.00 C581.03,364.00 583.00,360.58 583.00,357.08 C583.00,352.09 580.45,349.76 575.45,350.18 C567.64,350.84 565.40,360.52 572.35,363.55 ZM 574.00 278.31 C575.98,279.07 580.19,278.17 581.73,276.67 C582.40,276.01 583.23,274.12 583.56,272.47 C584.91,265.68 575.95,261.05 571.00,266.00 C567.23,269.77 568.84,276.34 574.00,278.31 ZM 548.32 277.99 C551.97,279.47 553.98,279.11 556.55,276.55 C561.34,271.75 558.16,264.00 551.40,264.00 C543.79,264.00 541.33,275.18 548.32,277.99 ZM 610.22 256.44 C611.44,257.30 613.59,258.00 615.00,258.00 C619.39,258.00 622.00,255.39 622.00,250.98 C622.00,245.62 618.85,242.63 614.00,243.40 C609.69,244.08 608.00,246.26 608.00,251.13 C608.00,253.88 608.60,255.30 610.22,256.44 ZM 672.00 213.00 C674.45,215.45 679.66,215.62 682.17,213.35 C686.31,209.60 683.27,200.00 677.93,200.00 C675.58,200.00 671.86,201.77 670.77,203.40 C669.30,205.59 670.00,211.00 672.00,213.00 ZM 598.47 364.04 C603.09,365.89 608.00,362.35 608.00,357.17 C608.00,352.42 605.61,350.00 600.92,350.00 C592.46,350.00 590.56,360.87 598.47,364.04 ZM 598.89 277.89 C602.92,279.36 603.90,279.19 606.55,276.55 C611.35,271.74 608.51,264.00 601.95,264.00 C598.69,264.00 594.00,267.78 594.00,270.41 C594.00,273.37 596.34,276.95 598.89,277.89 ZM 633.07 255.37 C634.58,257.28 636.07,258.00 638.50,258.00 C642.37,258.00 646.00,254.28 646.00,250.32 C646.00,247.65 641.93,243.00 639.59,243.00 C636.78,243.00 633.22,245.22 632.11,247.66 C630.55,251.08 630.71,252.36 633.07,255.37 ZM 650.00 278.29 C656.58,280.71 662.19,271.18 657.35,265.83 C655.25,263.52 649.30,263.42 646.83,265.65 C643.09,269.04 644.94,276.43 650.00,278.29 ZM 624.32 277.99 C627.61,279.32 628.49,279.19 631.37,276.93 C634.49,274.47 634.99,268.75 632.35,265.83 C630.25,263.52 624.30,263.42 621.83,265.65 C618.44,268.72 619.95,276.24 624.32,277.99 ZM 646.45 212.55 C647.80,213.90 650.08,215.00 651.50,215.00 C654.83,215.00 659.00,210.83 659.00,207.50 C659.00,204.17 654.83,200.00 651.50,200.00 C648.17,200.00 644.00,204.17 644.00,207.50 C644.00,208.93 645.10,211.20 646.45,212.55 ZM 565.69 256.89 C566.69,257.47 568.71,257.95 570.18,257.97 C576.95,258.05 579.36,248.25 573.52,244.42 C571.51,243.10 570.47,243.02 567.62,243.96 C561.88,245.86 560.67,253.97 565.69,256.89 ZM 680.22 256.44 C687.69,261.67 695.99,251.90 689.55,245.45 C686.73,242.64 683.42,242.32 680.22,244.56 C678.50,245.76 678.00,247.10 678.00,250.50 C678.00,253.90 678.50,255.24 680.22,256.44 ZM 622.22 213.44 C628.64,217.94 636.39,211.54 633.14,204.41 C631.37,200.52 627.64,199.33 623.47,201.31 C620.28,202.84 620.00,203.32 620.00,207.43 C620.00,210.90 620.49,212.23 622.22,213.44 ZM 587.22 256.44 C592.39,260.07 599.00,256.91 599.00,250.81 C599.00,246.95 595.60,243.00 592.28,243.00 C586.15,243.00 582.37,253.05 587.22,256.44 ZM 659.45 191.55 C666.13,198.22 675.86,189.96 670.44,182.22 C668.11,178.89 661.84,179.12 659.07,182.63 C656.35,186.10 656.46,188.55 659.45,191.55 ZM 572.74 213.75 C577.06,217.03 584.00,213.63 584.00,208.22 C584.00,203.70 581.45,201.00 577.19,201.02 C572.94,201.03 571.74,201.65 570.15,204.68 C568.81,207.23 570.10,211.75 572.74,213.75 ZM 696.45 212.55 C701.24,217.33 708.00,214.38 708.00,207.50 C708.00,200.81 701.92,197.91 696.63,202.07 C693.19,204.78 693.11,209.21 696.45,212.55 ZM 548.17 213.25 C552.70,217.11 560.00,214.00 560.00,208.22 C560.00,203.63 557.46,201.00 553.01,201.00 C547.42,201.00 545.22,203.81 545.94,210.00 C546.03,210.82 547.04,212.29 548.17,213.25 ZM 542.91 256.13 C547.90,260.17 554.00,257.32 554.00,250.94 C554.00,246.37 551.29,243.00 547.61,243.00 C541.16,243.00 537.91,252.08 542.91,256.13 ZM 634.00 192.00 C636.43,194.43 642.19,194.66 644.43,192.43 C648.99,187.87 646.28,180.76 639.77,180.20 C636.92,179.95 635.82,180.42 634.11,182.58 C631.46,185.96 631.42,189.42 634.00,192.00 ZM 701.00 278.29 C703.83,279.33 705.10,279.00 707.55,276.55 C710.55,273.55 710.68,270.13 707.93,266.63 C705.21,263.18 699.83,262.97 697.56,266.22 C694.44,270.67 696.10,276.49 701.00,278.29 ZM 647.03 235.88 C654.07,238.66 659.74,230.75 655.01,224.73 C650.85,219.45 642.99,222.12 643.02,228.81 C643.03,233.27 643.79,234.60 647.03,235.88 ZM 609.17 191.69 C612.25,194.96 617.22,194.81 619.93,191.37 C621.07,189.92 622.00,187.95 622.00,187.00 C622.00,183.65 618.09,180.00 614.50,180.00 C612.07,180.00 610.58,180.72 609.07,182.63 C606.42,186.01 606.45,188.78 609.17,191.69 ZM 684.05 192.24 C690.76,197.68 700.12,188.21 694.35,181.83 C692.05,179.30 685.86,179.39 683.50,182.00 C681.03,184.73 681.31,190.02 684.05,192.24 ZM 597.59 172.10 C601.62,176.55 610.00,173.11 610.00,167.00 C610.00,160.92 602.86,157.86 597.95,161.84 C595.21,164.06 595.03,169.27 597.59,172.10 ZM 598.30 213.80 C602.05,215.61 604.75,215.14 607.01,212.27 C609.25,209.41 609.19,205.14 606.87,202.35 C605.69,200.92 599.26,200.53 597.40,201.77 C593.43,204.42 593.98,211.71 598.30,213.80 ZM 670.65 172.17 C674.47,176.39 683.00,172.70 683.00,166.83 C683.00,161.04 675.18,157.72 670.83,161.65 C668.52,163.75 668.42,169.70 670.65,172.17 ZM 702.00 256.00 C703.10,257.10 705.15,258.00 706.55,258.00 C709.84,258.00 714.00,253.82 714.00,250.50 C714.00,247.38 709.91,243.00 707.00,243.00 C705.85,243.00 703.80,244.10 702.45,245.45 C699.42,248.48 699.22,253.22 702.00,256.00 ZM 622.00 172.00 C624.80,174.80 630.41,174.68 632.44,171.78 C636.00,166.69 632.91,160.00 627.00,160.00 C620.87,160.00 617.67,167.67 622.00,172.00 ZM 623.17 235.41 C626.13,237.48 629.25,237.43 631.93,235.25 C638.24,230.13 631.65,219.67 624.32,223.17 C621.91,224.32 621.46,225.19 621.20,229.17 C620.95,233.06 621.27,234.07 623.17,235.41 ZM 646.65 172.17 C648.70,174.43 654.28,174.58 656.43,172.43 C659.13,169.73 659.46,166.10 657.28,163.16 C654.83,159.86 649.68,159.08 646.91,161.58 C644.52,163.75 644.38,169.66 646.65,172.17 ZM 574.00 172.00 C576.45,174.45 581.66,174.62 584.17,172.35 C586.65,170.11 586.55,164.55 584.00,162.00 C581.30,159.30 577.43,159.48 574.45,162.45 C571.48,165.43 571.30,169.30 574.00,172.00 ZM 666.86 234.98 C671.24,237.54 678.00,234.56 678.00,230.07 C678.00,224.23 674.08,221.01 668.63,222.38 C664.07,223.52 662.79,232.61 666.86,234.98 ZM 584.19 191.96 C587.03,194.61 590.78,194.55 593.69,191.83 C598.29,187.50 595.32,180.00 589.00,180.00 C582.75,180.00 579.64,187.72 584.19,191.96 ZM 560.45 191.94 C562.71,194.44 567.63,194.65 570.17,192.35 C572.48,190.25 572.58,184.30 570.35,181.83 C568.21,179.47 562.81,179.45 560.69,181.79 C558.34,184.39 558.22,189.48 560.45,191.94 ZM 600.34 234.43 C603.45,237.54 605.87,237.67 609.37,234.93 C614.47,230.91 611.93,223.00 605.54,223.00 C601.40,223.00 599.17,224.77 598.40,228.68 C597.90,231.26 598.27,232.36 600.34,234.43 ZM 581.27 235.90 C584.18,236.98 586.76,236.18 588.53,233.65 C590.30,231.13 590.39,228.94 588.85,225.57 C586.54,220.49 579.92,221.01 577.32,226.46 C575.80,229.64 575.81,230.06 577.40,232.49 C578.35,233.93 580.09,235.47 581.27,235.90 ZM 634.17 153.40 C640.56,157.88 648.09,152.13 644.81,145.29 C641.65,138.70 632.84,140.77 632.20,148.25 C631.96,151.03 632.39,152.16 634.17,153.40 ZM 688.00 234.00 C690.72,236.72 695.46,236.61 697.44,233.78 C702.30,226.85 695.03,218.79 688.22,223.56 C685.32,225.59 685.20,231.20 688.00,234.00 ZM 658.32 153.99 C661.78,155.39 662.93,155.16 665.55,152.55 C668.59,149.51 668.69,145.72 665.81,143.04 C662.89,140.31 659.44,140.47 656.45,143.45 C652.80,147.11 653.69,152.13 658.32,153.99 ZM 558.00 235.71 C561.56,237.51 562.77,237.32 565.55,234.55 C570.07,230.02 567.69,223.00 561.63,223.00 C556.50,223.00 554.81,224.83 555.18,230.01 C555.44,233.58 555.99,234.70 558.00,235.71 ZM 694.15 172.25 C696.87,174.55 699.15,174.46 702.37,171.93 C705.54,169.43 705.74,166.21 702.93,162.63 C700.12,159.06 695.86,159.09 693.02,162.71 C690.53,165.87 690.96,169.55 694.15,172.25 ZM 554.00 174.29 C556.38,175.17 556.59,175.11 559.37,172.93 C562.43,170.52 562.98,165.13 560.43,162.57 C558.37,160.52 553.14,160.56 550.83,162.65 C547.23,165.91 549.02,172.46 554.00,174.29 ZM 612.50 153.83 C614.95,155.25 619.06,154.46 620.75,152.25 C622.69,149.71 622.24,145.30 619.81,143.04 C615.52,139.05 608.99,141.63 609.02,147.31 C609.03,150.97 609.69,152.20 612.50,153.83 ZM 568.22 153.44 C569.44,154.30 571.37,155.00 572.50,155.00 C573.63,155.00 575.56,154.30 576.78,153.44 C579.45,151.57 579.82,145.96 577.43,143.57 C575.37,141.52 570.14,141.56 567.83,143.65 C565.20,146.03 565.42,151.48 568.22,153.44 ZM 590.22 153.44 C593.25,155.57 596.60,155.40 599.00,153.00 C603.14,148.86 600.34,142.00 594.51,142.00 C590.23,142.00 588.00,144.23 588.00,148.51 C588.00,150.87 588.67,152.36 590.22,153.44 ZM 678.65 152.17 C681.03,154.80 686.48,154.58 688.44,151.78 C691.80,146.99 688.85,141.67 682.85,141.67 C677.56,141.67 674.99,148.12 678.65,152.17 ZM 707.45 191.55 C708.99,193.08 711.05,194.00 712.95,194.00 C715.95,194.00 716.00,193.91 716.00,188.93 C716.00,182.32 714.71,180.00 711.02,180.00 C705.31,180.00 703.09,187.18 707.45,191.55 ZM 622.57 134.43 C624.43,136.28 630.09,136.51 631.80,134.80 C632.46,134.14 633.00,131.98 633.00,130.00 C633.00,125.55 631.55,124.00 627.37,124.00 C623.38,124.00 621.00,126.24 621.00,130.00 C621.00,131.57 621.71,133.56 622.57,134.43 ZM 710.00 234.00 C712.36,236.36 716.25,236.61 718.00,234.51 C719.88,232.24 719.46,224.81 717.37,223.28 C714.82,221.42 713.22,221.69 710.45,224.45 C707.48,227.43 707.30,231.30 710.00,234.00 ZM 537.11 235.25 C539.85,237.52 541.54,237.46 544.00,235.00 C548.04,230.96 545.46,224.00 539.92,224.00 C533.95,224.00 532.17,231.14 537.11,235.25 ZM 600.56 133.78 C603.70,138.26 611.00,135.37 611.00,129.64 C611.00,125.54 609.46,124.00 605.36,124.00 C599.99,124.00 597.40,129.28 600.56,133.78 ZM 644.19 133.96 C645.39,135.08 647.35,136.00 648.53,136.00 C653.06,136.00 655.99,129.11 653.00,125.50 C651.06,123.16 645.40,123.59 643.56,126.22 C641.42,129.27 641.61,131.55 644.19,133.96 ZM 540.75 192.92 C543.25,194.37 544.48,194.24 546.95,192.24 C550.00,189.77 550.05,184.27 547.05,181.84 C543.66,179.09 541.36,179.52 540.10,183.15 C538.48,187.79 538.74,191.75 540.75,192.92 ZM 511.00 311.00 L 511.00 324.00 L 519.00 324.00 L 519.00 311.00 ZM 735.67 323.33 C736.03,323.70 737.83,324.00 739.67,324.00 L 743.00 324.00 L 743.00 309.85 L 739.75 310.17 C737.96,310.34 736.19,311.16 735.82,311.99 C734.93,313.97 734.81,322.48 735.67,323.33 ZM 580.94 134.16 C585.27,137.66 591.02,135.33 590.98,130.10 C590.95,124.98 589.62,124.30 584.52,126.78 C578.90,129.51 577.86,131.66 580.94,134.16 ZM 666.75 134.92 C670.14,136.89 674.41,135.97 676.05,132.91 C676.90,131.32 676.33,130.69 671.98,128.49 C669.20,127.08 666.49,126.20 665.96,126.52 C664.27,127.57 664.85,133.81 666.75,134.92 Z" fill="#000000"/>
    <path d="M 658.00 551.08 L 662.75 549.65 C680.24,544.40 701.71,530.53 716.25,515.07 C733.45,496.79 744.25,475.32 749.25,449.50 C751.25,439.19 751.39,435.07 751.56,384.00 C751.65,354.02 751.79,320.81 751.87,310.19 L 752.00 290.87 L 758.50 291.50 L 758.50 450.50 L 755.83 461.00 C745.89,499.99 723.19,529.42 687.00,550.20 C681.76,553.21 664.75,560.56 660.75,561.54 L 658.00 562.22 ZM 587.00 559.10 C576.59,555.21 563.98,548.77 554.40,542.43 C546.97,537.51 526.42,519.25 527.32,518.35 C527.53,518.14 526.19,516.36 524.35,514.41 C520.02,509.82 514.67,502.03 514.67,500.33 C514.67,499.60 514.27,499.00 513.77,499.00 C513.28,499.00 513.16,498.55 513.50,497.99 C513.85,497.44 513.43,496.72 512.57,496.39 C511.71,496.06 511.26,495.39 511.56,494.90 C511.87,494.40 511.70,494.00 511.18,494.00 C510.23,494.00 507.64,488.65 507.98,487.40 C508.09,487.03 507.73,486.45 507.20,486.11 C505.78,485.22 502.92,477.94 503.57,476.89 C503.87,476.40 503.66,476.00 503.09,476.00 C502.53,476.00 502.32,475.33 502.64,474.50 C502.95,473.67 502.69,473.00 502.05,473.00 C501.41,473.00 501.14,472.58 501.46,472.07 C501.77,471.56 501.54,470.84 500.95,470.47 C500.35,470.10 500.10,469.18 500.39,468.43 C500.68,467.68 500.52,466.82 500.05,466.53 C499.58,466.24 499.42,465.10 499.71,464.00 C500.00,462.90 499.77,462.00 499.21,462.00 C498.65,462.00 498.42,461.10 498.71,460.00 C499.00,458.90 498.77,458.00 498.21,458.00 C497.65,458.00 497.42,457.10 497.71,456.00 C498.02,454.80 497.74,454.00 497.01,454.00 C496.14,454.00 495.97,452.96 496.43,450.50 C496.80,448.58 496.73,447.00 496.30,447.00 C495.73,447.00 495.41,305.53 495.95,292.18 C495.98,291.35 497.00,290.98 498.75,291.18 L 501.50 291.50 L 502.07 365.50 C502.61,434.86 502.77,440.16 504.71,450.00 C511.39,484.03 529.59,512.71 557.06,532.48 C565.83,538.80 581.47,546.85 590.25,549.58 L 596.00 551.37 L 596.00 556.68 C596.00,559.61 595.66,561.98 595.25,561.95 C594.84,561.92 591.12,560.64 587.00,559.10 ZM 612.50 658.81 C611.40,658.18 610.17,657.18 609.77,656.59 C609.36,655.99 609.02,642.45 609.02,626.50 L 609.00 597.50 L 646.00 597.50 L 646.00 655.85 L 643.37 657.93 C641.00,659.79 639.40,660.00 627.62,659.97 C619.74,659.95 613.70,659.49 612.50,658.81 ZM 606.31 586.59 L 603.50 584.18 L 603.18 567.94 C603.00,559.01 603.12,550.67 603.43,549.42 C604.73,544.23 605.69,544.00 626.40,544.00 C628.04,544.00 629.56,543.99 630.98,543.99 C640.72,543.94 645.50,543.92 647.83,546.30 C650.08,548.59 650.06,553.12 650.01,562.02 C650.01,563.36 650.00,564.81 650.00,566.36 C650.00,567.66 650.00,568.89 650.01,570.05 C650.04,579.52 650.06,584.28 647.69,586.66 C645.30,589.05 640.49,589.04 630.83,589.01 C629.66,589.00 628.42,589.00 627.10,589.00 C609.53,589.00 609.05,588.94 606.31,586.59 ZM 532.25 377.34 C530.73,376.73 530.58,374.00 532.06,374.00 C532.64,374.00 532.84,373.55 532.50,373.00 C532.09,372.34 563.67,372.00 626.47,372.00 C709.98,372.00 721.13,372.18 721.64,373.51 C721.96,374.34 721.67,375.69 720.99,376.51 C719.91,377.81 707.90,377.99 626.63,377.92 C575.41,377.88 532.94,377.62 532.25,377.34 ZM 531.67 294.33 C530.52,293.18 530.94,290.00 532.25,289.98 C532.94,289.97 576.14,289.86 628.26,289.73 C717.57,289.51 723.06,289.60 723.58,291.24 C723.88,292.20 723.85,293.44 723.51,293.99 C722.80,295.13 532.80,295.47 531.67,294.33 ZM 531.67 342.34 C531.30,341.97 531.00,340.73 531.00,339.58 L 531.00 337.50 L 627.25 337.81 L 723.50 338.13 L 723.50 342.50 L 627.92 342.76 C575.35,342.90 532.04,342.71 531.67,342.34 ZM 609.64 670.06 C602.49,667.19 597.93,662.17 598.04,657.30 C598.06,656.19 598.61,656.72 599.46,658.69 C601.15,662.57 606.89,666.49 613.19,668.05 C615.97,668.73 622.90,669.06 630.19,668.85 C640.63,668.54 643.23,668.12 647.30,666.13 C652.44,663.61 654.76,660.87 656.11,655.72 C656.86,652.87 656.91,653.00 656.55,656.91 C656.05,662.38 653.62,665.77 647.91,668.98 C643.86,671.26 642.31,671.49 629.00,671.74 C616.52,671.98 613.82,671.74 609.64,670.06 ZM 671.56 361.78 C667.79,356.39 671.13,349.52 677.44,349.70 C682.39,349.84 685.00,352.36 685.00,357.00 C685.00,361.80 682.56,364.00 677.23,364.00 C674.11,364.00 672.74,363.46 671.56,361.78 ZM 625.26 364.21 C619.69,363.63 617.13,357.11 620.56,352.22 C621.76,350.50 623.10,350.00 626.50,350.00 C631.59,350.00 634.00,352.43 634.00,357.57 C634.00,362.22 630.64,364.77 625.26,364.21 ZM 647.19 363.32 C645.21,362.53 643.83,358.03 644.56,354.74 C645.66,349.70 653.79,347.87 657.35,351.86 C659.83,354.63 659.87,359.99 657.43,362.43 C655.92,363.94 650.02,364.45 647.19,363.32 ZM 699.32 363.81 C696.29,362.34 694.65,358.04 695.89,354.78 C698.99,346.64 710.00,348.43 710.00,357.08 C710.00,359.97 709.38,361.34 707.37,362.93 C704.47,365.20 702.62,365.41 699.32,363.81 ZM 548.36 364.01 C545.83,362.99 543.00,359.24 543.00,356.91 C543.00,356.01 543.93,354.08 545.07,352.63 C547.63,349.38 553.74,348.94 556.35,351.83 C558.99,354.75 558.49,360.47 555.37,362.93 C552.50,365.18 551.60,365.32 548.36,364.01 ZM 572.35 363.55 C565.40,360.52 567.64,350.84 575.45,350.18 C580.45,349.76 583.00,352.09 583.00,357.08 C583.00,360.58 581.03,364.00 579.01,364.00 C578.54,364.00 577.56,364.21 576.83,364.46 C576.10,364.72 574.08,364.31 572.35,363.55 ZM 598.47 364.04 C590.56,360.87 592.46,350.00 600.92,350.00 C605.61,350.00 608.00,352.42 608.00,357.17 C608.00,362.35 603.09,365.89 598.47,364.04 ZM 511.00 311.00 L 519.00 311.00 L 519.00 324.00 L 511.00 324.00 ZM 735.67 323.33 C734.81,322.48 734.93,313.97 735.82,311.99 C736.19,311.16 737.96,310.34 739.75,310.17 L 743.00 309.85 L 743.00 324.00 L 739.67 324.00 C737.83,324.00 736.03,323.70 735.67,323.33 ZM 672.60 130.85 C671.76,132.20 668.00,132.41 668.00,131.11 C668.00,130.62 668.67,129.95 669.50,129.64 C670.33,129.32 671.00,129.53 671.00,130.09 C671.00,130.66 671.52,130.80 672.15,130.40 C672.87,129.96 673.04,130.13 672.60,130.85 Z" fill="#000000"/>
    <path d="M 656.45 255.55 C655.10,254.20 654.00,251.93 654.00,250.50 C654.00,244.40 662.71,240.71 667.00,245.00 C669.87,247.87 669.74,254.37 666.78,256.44 C663.49,258.74 659.29,258.38 656.45,255.55 ZM 674.24 277.97 C669.77,276.17 668.85,269.30 672.57,265.57 C674.81,263.34 680.57,263.57 683.00,266.00 C685.78,268.78 685.58,273.52 682.55,276.55 C679.97,279.13 677.98,279.47 674.24,277.97 ZM 574.00 278.31 C568.84,276.34 567.23,269.77 571.00,266.00 C575.95,261.05 584.91,265.68 583.56,272.47 C583.23,274.12 582.40,276.01 581.73,276.67 C580.19,278.17 575.98,279.07 574.00,278.31 ZM 548.32 277.99 C541.33,275.18 543.79,264.00 551.40,264.00 C558.16,264.00 561.34,271.75 556.55,276.55 C553.98,279.11 551.97,279.47 548.32,277.99 ZM 610.22 256.44 C608.60,255.30 608.00,253.88 608.00,251.13 C608.00,246.26 609.69,244.08 614.00,243.40 C618.85,242.63 622.00,245.62 622.00,250.98 C622.00,255.39 619.39,258.00 615.00,258.00 C613.59,258.00 611.44,257.30 610.22,256.44 ZM 672.00 213.00 C670.00,211.00 669.30,205.59 670.77,203.40 C671.86,201.77 675.58,200.00 677.93,200.00 C683.27,200.00 686.31,209.60 682.17,213.35 C679.66,215.62 674.45,215.45 672.00,213.00 ZM 598.89 277.89 C596.34,276.95 594.00,273.37 594.00,270.41 C594.00,267.78 598.69,264.00 601.95,264.00 C608.51,264.00 611.35,271.74 606.55,276.55 C603.90,279.19 602.92,279.36 598.89,277.89 ZM 633.07 255.37 C630.71,252.36 630.55,251.08 632.11,247.66 C633.22,245.22 636.78,243.00 639.59,243.00 C641.93,243.00 646.00,247.65 646.00,250.32 C646.00,254.28 642.37,258.00 638.50,258.00 C636.07,258.00 634.58,257.28 633.07,255.37 ZM 650.00 278.29 C644.94,276.43 643.09,269.04 646.83,265.65 C649.30,263.42 655.25,263.52 657.35,265.83 C662.19,271.18 656.58,280.71 650.00,278.29 ZM 624.32 277.99 C619.95,276.24 618.44,268.72 621.83,265.65 C624.30,263.42 630.25,263.52 632.35,265.83 C634.99,268.75 634.49,274.47 631.37,276.93 C628.49,279.19 627.61,279.32 624.32,277.99 ZM 646.45 212.55 C645.10,211.20 644.00,208.93 644.00,207.50 C644.00,204.17 648.17,200.00 651.50,200.00 C654.83,200.00 659.00,204.17 659.00,207.50 C659.00,210.83 654.83,215.00 651.50,215.00 C650.08,215.00 647.80,213.90 646.45,212.55 ZM 565.69 256.89 C560.67,253.97 561.88,245.86 567.62,243.96 C570.47,243.02 571.51,243.10 573.52,244.42 C579.36,248.25 576.95,258.05 570.18,257.97 C568.71,257.95 566.69,257.47 565.69,256.89 ZM 680.22 256.44 C678.50,255.24 678.00,253.90 678.00,250.50 C678.00,247.10 678.50,245.76 680.22,244.56 C683.42,242.32 686.73,242.64 689.55,245.45 C695.99,251.90 687.69,261.67 680.22,256.44 ZM 622.22 213.44 C620.49,212.23 620.00,210.90 620.00,207.43 C620.00,203.32 620.28,202.84 623.47,201.31 C627.64,199.33 631.37,200.52 633.14,204.41 C636.39,211.54 628.64,217.94 622.22,213.44 ZM 587.22 256.44 C582.37,253.05 586.15,243.00 592.28,243.00 C595.60,243.00 599.00,246.95 599.00,250.81 C599.00,256.91 592.39,260.07 587.22,256.44 ZM 659.45 191.55 C656.46,188.55 656.35,186.10 659.07,182.63 C661.84,179.12 668.11,178.89 670.44,182.22 C675.86,189.96 666.13,198.22 659.45,191.55 ZM 572.74 213.75 C570.10,211.75 568.81,207.23 570.15,204.68 C571.74,201.65 572.94,201.03 577.19,201.02 C581.45,201.00 584.00,203.70 584.00,208.22 C584.00,213.63 577.06,217.03 572.74,213.75 ZM 696.45 212.55 C693.11,209.21 693.19,204.78 696.63,202.07 C701.92,197.91 708.00,200.81 708.00,207.50 C708.00,214.38 701.24,217.33 696.45,212.55 ZM 548.17 213.25 C547.04,212.29 546.03,210.82 545.94,210.00 C545.22,203.81 547.42,201.00 553.01,201.00 C557.46,201.00 560.00,203.63 560.00,208.22 C560.00,214.00 552.70,217.11 548.17,213.25 ZM 542.91 256.13 C537.91,252.08 541.16,243.00 547.61,243.00 C551.29,243.00 554.00,246.37 554.00,250.94 C554.00,257.32 547.90,260.17 542.91,256.13 ZM 634.00 192.00 C631.42,189.42 631.46,185.96 634.11,182.58 C635.82,180.42 636.92,179.95 639.77,180.20 C646.28,180.76 648.99,187.87 644.43,192.43 C642.19,194.66 636.43,194.43 634.00,192.00 ZM 701.00 278.29 C696.10,276.49 694.44,270.67 697.56,266.22 C699.83,262.97 705.21,263.18 707.93,266.63 C710.68,270.13 710.55,273.55 707.55,276.55 C705.10,279.00 703.83,279.33 701.00,278.29 ZM 647.03 235.88 C643.79,234.60 643.03,233.27 643.02,228.81 C642.99,222.12 650.85,219.45 655.01,224.73 C659.74,230.75 654.07,238.66 647.03,235.88 ZM 609.17 191.69 C606.45,188.78 606.42,186.01 609.07,182.63 C610.58,180.72 612.07,180.00 614.50,180.00 C618.09,180.00 622.00,183.65 622.00,187.00 C622.00,187.95 621.07,189.92 619.93,191.37 C617.22,194.81 612.25,194.96 609.17,191.69 ZM 684.05 192.24 C681.31,190.02 681.03,184.73 683.50,182.00 C685.86,179.39 692.05,179.30 694.35,181.83 C700.12,188.21 690.76,197.68 684.05,192.24 ZM 597.59 172.10 C595.03,169.27 595.21,164.06 597.95,161.84 C602.86,157.86 610.00,160.92 610.00,167.00 C610.00,173.11 601.62,176.55 597.59,172.10 ZM 598.30 213.80 C593.98,211.71 593.43,204.42 597.40,201.77 C599.26,200.53 605.69,200.92 606.87,202.35 C609.19,205.14 609.25,209.41 607.01,212.27 C604.75,215.14 602.05,215.61 598.30,213.80 ZM 670.65 172.17 C668.42,169.70 668.52,163.75 670.83,161.65 C675.18,157.72 683.00,161.04 683.00,166.83 C683.00,172.70 674.47,176.39 670.65,172.17 ZM 702.00 256.00 C699.22,253.22 699.42,248.48 702.45,245.45 C703.80,244.10 705.85,243.00 707.00,243.00 C709.91,243.00 714.00,247.38 714.00,250.50 C714.00,253.82 709.84,258.00 706.55,258.00 C705.15,258.00 703.10,257.10 702.00,256.00 ZM 622.00 172.00 C617.67,167.67 620.87,160.00 627.00,160.00 C632.91,160.00 636.00,166.69 632.44,171.78 C630.41,174.68 624.80,174.80 622.00,172.00 ZM 623.17 235.41 C621.27,234.07 620.95,233.06 621.20,229.17 C621.46,225.19 621.91,224.32 624.32,223.17 C631.65,219.67 638.24,230.13 631.93,235.25 C629.25,237.43 626.13,237.48 623.17,235.41 ZM 646.65 172.17 C644.38,169.66 644.52,163.75 646.91,161.58 C649.68,159.08 654.83,159.86 657.28,163.16 C659.46,166.10 659.13,169.73 656.43,172.43 C654.28,174.58 648.70,174.43 646.65,172.17 ZM 574.00 172.00 C571.30,169.30 571.48,165.43 574.45,162.45 C577.43,159.48 581.30,159.30 584.00,162.00 C586.55,164.55 586.65,170.11 584.17,172.35 C581.66,174.62 576.45,174.45 574.00,172.00 ZM 666.86 234.98 C662.79,232.61 664.07,223.52 668.63,222.38 C674.08,221.01 678.00,224.23 678.00,230.07 C678.00,234.56 671.24,237.54 666.86,234.98 ZM 584.19 191.96 C579.64,187.72 582.75,180.00 589.00,180.00 C595.32,180.00 598.29,187.50 593.69,191.83 C590.78,194.55 587.03,194.61 584.19,191.96 ZM 560.45 191.94 C558.22,189.48 558.34,184.39 560.69,181.79 C562.81,179.45 568.21,179.47 570.35,181.83 C572.58,184.30 572.48,190.25 570.17,192.35 C567.63,194.65 562.71,194.44 560.45,191.94 ZM 600.34 234.43 C598.27,232.36 597.90,231.26 598.40,228.68 C599.17,224.77 601.40,223.00 605.54,223.00 C611.93,223.00 614.47,230.91 609.37,234.93 C605.87,237.67 603.45,237.54 600.34,234.43 ZM 581.27 235.90 C580.09,235.47 578.35,233.93 577.40,232.49 C575.81,230.06 575.80,229.64 577.32,226.46 C579.92,221.01 586.54,220.49 588.85,225.57 C590.39,228.94 590.30,231.13 588.53,233.65 C586.76,236.18 584.18,236.98 581.27,235.90 ZM 634.17 153.40 C632.39,152.16 631.96,151.03 632.20,148.25 C632.84,140.77 641.65,138.70 644.81,145.29 C648.09,152.13 640.56,157.88 634.17,153.40 ZM 688.00 234.00 C685.20,231.20 685.32,225.59 688.22,223.56 C695.03,218.79 702.30,226.85 697.44,233.78 C695.46,236.61 690.72,236.72 688.00,234.00 ZM 658.32 153.99 C653.69,152.13 652.80,147.11 656.45,143.45 C659.44,140.47 662.89,140.31 665.81,143.04 C668.69,145.72 668.59,149.51 665.55,152.55 C662.93,155.16 661.78,155.39 658.32,153.99 ZM 558.00 235.71 C555.99,234.70 555.44,233.58 555.18,230.01 C554.81,224.83 556.50,223.00 561.63,223.00 C567.69,223.00 570.07,230.02 565.55,234.55 C562.77,237.32 561.56,237.51 558.00,235.71 ZM 694.15 172.25 C690.96,169.55 690.53,165.87 693.02,162.71 C695.86,159.09 700.12,159.06 702.93,162.63 C705.74,166.21 705.54,169.43 702.37,171.93 C699.15,174.46 696.87,174.55 694.15,172.25 ZM 554.00 174.29 C549.02,172.46 547.23,165.91 550.83,162.65 C553.14,160.56 558.37,160.52 560.43,162.57 C562.98,165.13 562.43,170.52 559.37,172.93 C556.59,175.11 556.38,175.17 554.00,174.29 ZM 612.50 153.83 C609.69,152.20 609.03,150.97 609.02,147.31 C608.99,141.63 615.52,139.05 619.81,143.04 C622.24,145.30 622.69,149.71 620.75,152.25 C619.06,154.46 614.95,155.25 612.50,153.83 ZM 568.22 153.44 C565.42,151.48 565.20,146.03 567.83,143.65 C570.14,141.56 575.37,141.52 577.43,143.57 C579.82,145.96 579.45,151.57 576.78,153.44 C575.56,154.30 573.63,155.00 572.50,155.00 C571.37,155.00 569.44,154.30 568.22,153.44 ZM 590.22 153.44 C588.67,152.36 588.00,150.87 588.00,148.51 C588.00,144.23 590.23,142.00 594.51,142.00 C600.34,142.00 603.14,148.86 599.00,153.00 C596.60,155.40 593.25,155.57 590.22,153.44 ZM 678.65 152.17 C674.99,148.12 677.56,141.67 682.85,141.67 C688.85,141.67 691.80,146.99 688.44,151.78 C686.48,154.58 681.03,154.80 678.65,152.17 ZM 707.45 191.55 C703.09,187.18 705.31,180.00 711.02,180.00 C714.71,180.00 716.00,182.32 716.00,188.93 C716.00,193.91 715.95,194.00 712.95,194.00 C711.05,194.00 708.99,193.08 707.45,191.55 ZM 622.57 134.43 C621.71,133.56 621.00,131.57 621.00,130.00 C621.00,126.24 623.38,124.00 627.37,124.00 C631.55,124.00 633.00,125.55 633.00,130.00 C633.00,131.98 632.46,134.14 631.80,134.80 C630.09,136.51 624.43,136.28 622.57,134.43 ZM 710.00 234.00 C707.30,231.30 707.48,227.43 710.45,224.45 C713.22,221.69 714.82,221.42 717.37,223.28 C719.46,224.81 719.88,232.24 718.00,234.51 C716.25,236.61 712.36,236.36 710.00,234.00 ZM 537.11 235.25 C532.17,231.14 533.95,224.00 539.92,224.00 C545.46,224.00 548.04,230.96 544.00,235.00 C541.54,237.46 539.85,237.52 537.11,235.25 ZM 600.56 133.78 C597.40,129.28 599.99,124.00 605.36,124.00 C609.46,124.00 611.00,125.54 611.00,129.64 C611.00,135.37 603.70,138.26 600.56,133.78 ZM 644.19 133.96 C641.61,131.55 641.42,129.27 643.56,126.22 C645.40,123.59 651.06,123.16 653.00,125.50 C655.99,129.11 653.06,136.00 648.53,136.00 C647.35,136.00 645.39,135.08 644.19,133.96 ZM 540.75 192.92 C538.74,191.75 538.48,187.79 540.10,183.15 C541.36,179.52 543.66,179.09 547.05,181.84 C550.05,184.27 550.00,189.77 546.95,192.24 C544.48,194.24 543.25,194.37 540.75,192.92 ZM 580.94 134.16 C577.86,131.66 578.90,129.51 584.52,126.78 C589.62,124.30 590.95,124.98 590.98,130.10 C591.02,135.33 585.27,137.66 580.94,134.16 ZM 666.75 134.92 C664.85,133.81 664.27,127.57 665.96,126.52 C666.49,126.20 669.20,127.08 671.98,128.49 C676.33,130.69 676.90,131.32 676.05,132.91 C674.41,135.97 670.14,136.89 666.75,134.92 ZM 672.60 130.85 C673.04,130.13 672.87,129.96 672.15,130.40 C671.52,130.80 671.00,130.66 671.00,130.09 C671.00,129.53 670.33,129.32 669.50,129.64 C668.67,129.95 668.00,130.62 668.00,131.11 C668.00,132.41 671.76,132.20 672.60,130.85 Z" fill="#000000"/>
    <path d="M 671.00 720.00 C722.93,716.97 759.10,710.28 763.00,703.00 C764.49,700.21 764.65,674.94 763.20,672.30 C759.67,665.91 720.80,653.35 686.50,647.51 C678.80,646.20 669.80,644.85 666.50,644.52 C663.20,644.19 659.04,643.69 657.25,643.41 L 654.00 642.91 L 654.00 617.36 C654.00,593.33 654.12,591.66 656.00,589.27 C657.58,587.26 658.00,585.22 658.00,579.49 L 658.00 572.25 L 667.70 569.04 C695.98,559.66 722.68,540.56 740.29,517.12 C751.72,501.89 759.61,485.05 764.70,465.00 L 767.36 454.50 L 767.73 397.36 L 768.10 340.21 L 772.48 339.55 C774.89,339.19 778.07,337.95 779.55,336.78 C784.03,333.26 785.00,329.37 785.00,315.00 C785.00,296.62 783.20,292.98 773.61,292.01 C769.27,291.58 768.45,291.16 768.18,289.27 C767.58,285.02 763.48,283.00 755.48,283.00 C745.27,283.00 743.66,284.43 743.00 294.16 L 742.50 301.50 L 739.11 301.50 C735.88 301.50 735.66 301.27 734.45 296.51 C733.60 293.16 732.19 290.69 730.17 289.00 L 727.15 286.48 L 726.76 243.49 C726.41 204.17 726.19 199.69 724.25 191.00 C715.89 153.63 693.20 126.15 660.65 113.97 C642.97 107.36 613.55 107.32 594.75 113.88 C579.21 119.31 562.85 131.14 551.67 145.01 C543.10 155.64 535.13 171.73 531.37 186.00 L 528.60 196.50 L 528.22 241.53 L 527.83 286.56 L 524.87 288.26 C521.72 290.07 519.00 295.28 519.00 299.53 C519.00 301.91 518.70 302.10 515.25 301.81 L 511.50 301.50 L 510.91 294.58 C510.40 288.69 509.91 287.32 507.60 285.33 C505.38 283.43 503.75 283.00 498.69 283.01 C491.03 283.03 487.85 284.55 486.64 288.76 C485.77 291.79 485.42 292.00 481.26 292.00 C477.52 292.00 476.25 292.55 473.40 295.40 L 470.00 298.80 L 470.00 314.33 C470.00 322.88 470.44 331.02 470.98 332.43 C472.17 335.57 477.23 338.82 482.18 339.63 L 485.85 340.23 L 486.27 394.37 C486.74 453.67 487.04 457.38 493.03 476.00 C500.25 498.46 511.48 516.33 529.32 533.71 C545.74 549.70 565.12 561.48 587.19 568.89 L 595.50 571.67 L 596.05 579.28 C596.42 584.47 597.14 587.50 598.31 588.79 C599.86 590.51 600.01 593.30 599.77 617.10 L 599.50 643.50 L 591.00 644.15 C565.34 646.11 516.35 658.53 499.60 667.34 C491.01 671.85 490.01 674.01 490.02 688.00 C490.03 695.12 490.50 700.43 491.26 701.94 C494.05 707.45 506.21 711.01 537.63 715.51 C547.46 716.92 564.05 718.52 574.50 719.06 C584.95 719.60 594.62 720.19 596.00 720.37 C602.17 721.18 655.20 720.92 671.00 720.00 ZM 588.23 538.56 C554.47 524.65 530.13 498.98 518.01 464.50 C511.93 447.21 511.78 445.53 511.30 386.75 L 510.86 333.00 L 514.38 333.00 C517.40 333.00 518.14 333.48 519.50 336.36 C520.37 338.20 522.16 340.29 523.48 340.99 L 525.87 342.27 L 526.29 390.88 C526.64 431.81 526.97 440.61 528.38 446.50 C534.43 471.85 546.88 491.34 566.08 505.48 C587.73 521.44 614.69 527.72 643.50 523.50 C665.69 520.25 681.89 512.16 698.30 496.13 C711.85 482.90 719.53 469.80 724.77 451.00 L 727.42 441.50 L 727.77 392.63 L 728.12 343.75 L 731.56 340.51 C733.45 338.72 735.00 336.30 735.00 335.13 C735.00 333.30 735.58 333.00 739.07 333.00 L 743.15 333.00 L 742.75 388.25 L 742.35 443.50 L 739.72 453.63 C732.62 480.99 715.57 506.93 694.16 522.97 C687.35 528.06 672.71 536.03 662.86 540.00 L 657.22 542.28 L 654.30 539.01 L 651.38 535.74 L 627.63 535.93 C614.57 536.03 603.30 536.33 602.58 536.61 C601.87 536.88 600.69 538.21 599.97 539.55 C599.25 540.90 598.18 541.99 597.58 541.98 C596.99 541.97 592.78 540.43 588.23 538.56 Z" fill="#000000"/>
  </g>
</svg>
